<svg width="149" height="26" viewBox="0 0 149 26" fill="none" xmlns="http://www.w3.org/2000/svg">
<g clip-path="url(#clip0_1_1684)">
<path d="M38.4609 7.53284V10.7244H35.6891V21.2484H32.197V10.7244H29.5588V7.53284H32.197V4.24587L35.6891 3.48257V7.52807H38.4609V7.53284Z" fill="#0F1020"/>
<path d="M42.8212 9.54129C43.8851 8.05762 45.2113 7.30862 46.8285 7.30862V10.92C44.2906 10.92 42.8212 12.3798 42.8212 14.7031V21.2437H39.3291V7.53284H42.8212V9.54129Z" fill="#0F1020"/>
<path d="M56.8327 7.53284H60.3248V21.2484H56.8327V19.5787C55.7689 20.905 54.3901 21.5776 52.6679 21.5776C51.1318 21.5776 49.8819 21.091 48.9373 20.1321C47.9784 19.1732 47.5061 17.8995 47.5061 16.3204V7.53284H50.9982V15.2995C50.9982 16.182 51.2606 16.8738 51.7854 17.4033C52.2958 17.9281 52.9828 18.1905 53.8224 18.1905C54.7145 18.1905 55.4397 17.9138 56.0026 17.3747C56.556 16.8356 56.8279 16.1248 56.8279 15.247L56.8327 7.53284Z" fill="#0F1020"/>
<path d="M62.9247 20.2752C61.9372 19.4213 61.4553 18.3717 61.4553 17.1361H64.9904C64.9904 17.5703 65.1478 17.9233 65.477 18.2286C65.7918 18.5292 66.1735 18.6866 66.6315 18.6866C67.4854 18.6866 68.1533 18.1332 68.1533 17.451C68.1533 16.702 67.39 16.1248 65.8682 15.7288C63.0439 15.0609 61.6366 13.625 61.6509 11.4209C61.6509 10.109 62.1232 9.06899 63.0821 8.32C64.0267 7.57101 65.1955 7.20367 66.5742 7.20367C67.9529 7.20367 69.1504 7.60918 70.095 8.42496C71.0395 9.24074 71.5118 10.2378 71.5118 11.4209H67.9911C67.9911 10.6719 67.3757 10.0804 66.5456 10.0804C65.7966 10.0804 65.1669 10.5908 65.1669 11.211C65.1669 11.96 65.9684 12.5372 67.557 12.9332C70.3144 13.6297 71.6979 15.0466 71.7074 17.1648C71.7074 18.5292 71.2208 19.6073 70.2476 20.3993C69.2601 21.1864 68.0531 21.5824 66.5933 21.5824C65.1287 21.5728 63.9074 21.1435 62.9247 20.2752Z" fill="#0F1020"/>
<path d="M80.5618 7.53284V10.7244H77.7901V21.2484H74.298V10.7244H71.655V7.53284H74.2932V4.24587L77.7853 3.48257V7.52807H80.5618V7.53284Z" fill="#0F1020"/>
<path d="M90.5419 7.53284H94.034V21.2484H90.5419V19.5787C89.4781 20.905 88.0994 21.5776 86.3772 21.5776C84.841 21.5776 83.5911 21.091 82.6465 20.1321C81.6876 19.1732 81.2153 17.8995 81.2153 16.3204V7.53284H84.7074V15.2995C84.7074 16.182 84.9698 16.8738 85.4946 17.4033C86.0051 17.9281 86.692 18.1905 87.5317 18.1905C88.4238 18.1905 89.1489 17.9138 89.7118 17.3747C90.2652 16.8356 90.5372 16.1248 90.5372 15.247L90.5419 7.53284Z" fill="#0F1020"/>
<path d="M108.756 9.25028C110.03 10.629 110.66 12.3369 110.66 14.3739C110.66 16.411 110.03 18.1332 108.756 19.5119C107.482 20.8906 105.894 21.5728 103.986 21.5728C102.077 21.5728 100.66 20.862 99.5202 19.4451V25.4037H96.0281V7.53284H99.5202V9.33138C100.665 7.9145 102.163 7.20367 103.986 7.20367C105.808 7.20367 107.482 7.88587 108.756 9.25028ZM103.294 18.1857C104.372 18.1857 105.264 17.8183 105.989 17.0932C106.714 16.3681 107.067 15.4664 107.067 14.3883C107.067 13.3101 106.714 12.4037 105.989 11.6833C105.264 10.9629 104.372 10.5908 103.294 10.5908C102.216 10.5908 101.323 10.9582 100.598 11.6833C99.878 12.4084 99.5202 13.3149 99.5202 14.3883C99.5202 15.4617 99.8732 16.3728 100.598 17.0932C101.323 17.8136 102.216 18.1857 103.294 18.1857Z" fill="#0F1020"/>
<path d="M12.103 11.7262C11.8168 11.8407 11.5592 12.0125 11.3397 12.2319C10.8197 12.7519 10.5764 13.4961 10.6909 14.2213C10.7243 14.4598 10.9342 14.6268 11.1632 14.6268C11.1871 14.6268 11.2109 14.622 11.2348 14.622C11.4924 14.5791 11.6737 14.3358 11.6307 14.0734C11.5639 13.6488 11.7071 13.2099 12.0124 12.9094C12.1412 12.7806 12.2938 12.6804 12.4608 12.6136C12.7041 12.5134 12.8234 12.2319 12.728 11.9934C12.6278 11.7501 12.3511 11.6308 12.103 11.7262Z" fill="#FFC200"/>
<path d="M13 0C5.82018 0 0 5.82018 0 13C0 20.1798 5.82018 26 13 26C20.1798 26 26 20.1798 26 13C26 5.82018 20.1798 0 13 0ZM21.0051 11.7739L20.6235 11.8312C19.9938 11.9314 19.4738 12.5277 19.4738 13.167V18.2763L18.1666 16.9692C18.0283 16.8308 17.8088 16.8308 17.6657 16.9692L17.4939 17.1409L16.8117 16.4587C18.0283 14.6554 17.847 12.1842 16.244 10.5861C14.4312 8.77321 11.4972 8.77321 9.6844 10.5861C7.87156 12.3989 7.87156 15.3328 9.6844 17.1457C11.2826 18.7439 13.7538 18.9347 15.5571 17.7134L16.2393 18.3956L16.0675 18.5673C15.9292 18.7057 15.9292 18.9251 16.0675 19.0683L18.0283 21.0242H7.69028C7.05101 21.0242 6.52624 20.4994 6.52624 19.8602V13.167C6.52624 12.5277 6.01101 11.9266 5.37651 11.8312L4.99009 11.7739C4.36037 11.6738 4.23156 11.2492 4.70862 10.8246L12.127 4.19339C12.5993 3.76881 13.3817 3.76881 13.8587 4.19339L21.2771 10.8246C21.7637 11.2492 21.6349 11.6738 21.0051 11.7739ZM14.9035 15.8004C13.8301 16.869 12.0983 16.869 11.0297 15.8004C9.9611 14.727 9.9611 12.9952 11.0297 11.9266C12.1031 10.8532 13.8349 10.8532 14.9035 11.9266C15.9769 12.9952 15.9769 14.727 14.9035 15.8004Z" fill="#FFC200"/>
<path d="M143.65 5.35695H117.444C114.813 5.35695 112.66 7.50995 112.66 10.141V18.5845C112.66 21.1917 114.774 23.3284 117.372 23.3676V9.77171H119.775V11.1447C120.084 10.7101 120.51 10.3466 121.053 10.0551C121.597 9.76312 122.217 9.61762 122.915 9.61762C123.728 9.61762 124.462 9.81798 125.121 10.2182C125.778 10.619 126.299 11.1881 126.682 11.9261C127.066 12.6641 127.257 13.5195 127.257 14.4918C127.257 15.464 127.066 16.3256 126.682 17.0746C126.299 17.8241 125.778 18.4047 125.121 18.8168C124.463 19.2285 123.728 19.4346 122.915 19.4346C122.217 19.4346 121.602 19.2915 121.07 19.0058C120.538 18.72 120.106 18.3593 119.775 17.9247V23.3695H143.651C146.282 23.3695 148.435 21.2165 148.435 18.5855V10.141C148.435 7.50947 146.282 5.35695 143.651 5.35695H143.65ZM133.454 12.1575H132.819C132.064 12.1575 131.495 12.335 131.111 12.6894C130.728 13.0444 130.536 13.6622 130.536 14.5428V19.2796H128.133V9.77171H130.536V11.2477C130.845 10.7444 131.248 10.3494 131.746 10.0637C132.244 9.77791 132.813 9.63479 133.454 9.63479V12.1575ZM143.151 17.1004C142.71 17.8441 142.116 18.4194 141.366 18.8254C140.617 19.2319 139.778 19.4346 138.851 19.4346C137.925 19.4346 137.112 19.2314 136.38 18.8254C135.647 18.4194 135.073 17.8446 134.655 17.1004C134.237 16.3566 134.028 15.4984 134.028 14.5261C134.028 13.5539 134.243 12.6956 134.672 11.9519C135.101 11.2081 135.687 10.6333 136.431 10.2268C137.175 9.82084 138.004 9.61762 138.92 9.61762C139.836 9.61762 140.664 9.82084 141.408 10.2268C142.152 10.6333 142.738 11.2081 143.167 11.9519C143.596 12.6956 143.811 13.5539 143.811 14.5261C143.811 15.4984 143.59 16.3571 143.15 17.1004H143.151Z" fill="#FFC200"/>
<path d="M138.886 11.711C138.2 11.711 137.625 11.9543 137.161 12.4404C136.698 12.927 136.466 13.6221 136.466 14.5257C136.466 15.4292 136.692 16.1248 137.144 16.6109C137.596 17.0975 138.165 17.3403 138.852 17.3403C139.286 17.3403 139.695 17.2349 140.079 17.0226C140.462 16.8108 140.768 16.4935 140.997 16.0699C141.226 15.6468 141.341 15.132 141.341 14.5252C141.341 13.6216 141.103 12.9265 140.628 12.4399C140.153 11.9538 139.573 11.7105 138.886 11.7105V11.711Z" fill="#FFC200"/>
<path d="M121.053 16.9887C121.436 17.212 121.845 17.3236 122.28 17.3236C122.714 17.3236 123.14 17.2096 123.524 16.9801C123.907 16.7516 124.216 16.4253 124.451 16.0017C124.685 15.5785 124.803 15.0748 124.803 14.4913C124.803 13.9079 124.686 13.4246 124.451 13.0067C124.216 12.5892 123.907 12.2715 123.524 12.054C123.14 11.8369 122.726 11.7277 122.28 11.7277C121.834 11.7277 121.436 11.8393 121.053 12.0626C120.669 12.2858 120.36 12.6093 120.126 13.0324C119.891 13.4561 119.774 13.9537 119.774 14.5257C119.774 15.0977 119.891 15.5957 120.126 16.0189C120.36 16.4425 120.669 16.7655 121.053 16.9887Z" fill="#FFC200"/>
</g>
<defs>
<clipPath id="clip0_1_1684">
<rect width="148.435" height="26" fill="white"/>
</clipPath>
</defs>
</svg>
